<svg xmlns="http://www.w3.org/2000/svg" width="16" height="16" id="bluepay" viewBox="0 0 64 64">
  <path fill="#0078C1" fill-rule="evenodd" d="M30.7 32.5c-2.8-4.2-5.2-8.7-12-8.9 2.3-1.7 4.7-3.3 5.5-6.5 2.7 1.9 4.8 4.4 5.9 7.9 3.5-7.1 8.2-13.1 13.7-18.2C40.3 4 35.9 2.4 31 2.4c-11.6 0-21 9.4-21 21s9.4 21 21 21 21-9.4 21-21c0-3.9-1.1-7.6-3-10.7-8.4 4.2-14.6 10.7-18.3 19.8z" clip-rule="evenodd"></path>
  <path fill="#005595" fill-rule="evenodd" d="M10.1 23.3c0 11.6 9.4 21 21 21s21-9.4 21-21c0-3.9-1.1-7.6-3-10.7-8.4 4.3-14.7 10.8-18.3 19.8-2.8-4.2-5.2-8.7-12-8.9 2.3-1.7 4.7-3.3 5.5-6.5 2.7 1.9 4.8 4.4 5.9 7.9 3.5-7.1 8.2-13.1 13.7-18.2-3.6-2.7-8-4.3-12.9-4.3" clip-rule="evenodd"></path>
  <path fill="#005595" fill-rule="evenodd" d="M49 12.6c1.8-.9 3.8-1.8 5.9-2.5-1.8-2.5-3.2-5.4-3.4-9.5-2.7 1.9-5.2 4-7.6 6.2 2 1.6 3.8 3.6 5.1 5.8z" clip-rule="evenodd"></path>
  <path fill="#003F66" fill-rule="evenodd" d="M49 12.6c1.8-.9 3.8-1.8 5.9-2.5-1.8-2.5-3.2-5.4-3.4-9.5" clip-rule="evenodd"></path>
  <path fill="#65B1E2" d="M8.2 60.2c-1.3 0-2.1-.1-2.5-.2h-.2V49.7h.2c.6-.1 1.8-.2 3-.2 1.5 0 2.4.2 3.1.6.8.4 1.3 1.2 1.3 2.2 0 .9-.5 1.7-1.4 2.1 1.1.4 1.7 1.4 1.7 2.5 0 .9-.4 1.7-1.1 2.3-.8.7-2.2 1-4.1 1zm-.1-2.1h.7c.5 0 1.8-.1 1.8-1.3 0-1.1-1.2-1.2-1.9-1.2h-.6v2.5zm.6-4.5c1.1 0 1.7-.4 1.7-1.1 0-.8-.8-1-1.4-1h-.8v2h.5zM14.4 49h2.7v11.1h-2.7zM21.2 60.2c-1 0-2.8-.4-2.8-3.4v-4.5h2.7v4.1c0 1.5.7 1.5 1 1.5.5 0 .9-.4 1-.7.1-.1.1-.3.1-.4v-4.6h2.7v5.2c0 1 0 1.8.1 2.4v.2h-2.4l-.1-.8c-.5.5-1.2 1-2.3 1zM30.8 60.2c-2.6 0-4.1-1.5-4.1-3.9 0-2 1.2-4.1 3.9-4.1 2.6 0 3.5 2 3.5 3.9 0 .4 0 .7-.1.9v.2h-4.7c.2.8 1.1 1 1.9 1 .7 0 1.3-.1 2-.3l.2-.1.4 1.9-.1.1c-.9.3-1.8.4-2.9.4zm.7-5c0-.4-.2-1.1-1.1-1.1-.8 0-1.1.6-1.2 1.1h2.3z"></path>
  <path fill="#005595" d="M35.2 60.1V49.7h.2c.8-.1 1.9-.2 3.1-.2 1.4 0 2.5.3 3.2.9.7.6 1.2 1.5 1.2 2.5 0 1.1-.4 2-1 2.5-.8.7-2 1.1-3.4 1.1h-.6v3.6h-2.7zm2.6-5.8h.6c1.1 0 1.8-.5 1.8-1.5 0-.8-.6-1.3-1.6-1.3h-.7v2.8zM45.6 60.2c-1.7 0-2.6-1.3-2.6-2.4 0-1.9 1.6-3 4.3-3 0-.5-.4-.7-1.1-.7-.8 0-1.5.3-1.9.5l-.3.2-.5-1.9.1-.1c.3-.2 1.4-.7 2.9-.7 2.2 0 3.4 1.2 3.4 3.4v2.6c0 .8 0 1.4.1 1.7l.1.2h-2.5l-.1-.6c-.4.6-1.1.8-1.9.8zm1.8-3.6c-1.2 0-1.8.4-1.8 1s.5.7.7.7c.5 0 .9-.3 1-.7v-1zM51 61.1h.2c.3-.1.6-.2.9-.4.3-.2.7-.5.9-.8.1-.1.1-.2.1-.2 0-.1 0-.1-.1-.3l-2.8-7h3l1.1 3.8c.1.2.1.5.2.7.1-.3.1-.5.2-.7l1-3.8h2.9l-1.8 5.1c-1.1 3.1-1.8 4.2-2.6 4.9-.9.8-1.8 1-2.3 1.1h-.2l-.7-2.4z"></path>
  <path fill="#003F66" fill-rule="evenodd" d="M30.7 32.5c-2.7-4.2-5.2-8.6-11.8-8.9L38.3 43c8-3 13.7-10.6 13.7-19.6 0-3.9-1.1-7.6-3-10.7-8.4 4.2-14.6 10.7-18.3 19.8z" clip-rule="evenodd"></path>
</svg>
